<mxfile host="65bd71144e" scale="1" border="10">
    <diagram id="-rriOPSDnHkLpZKLwRpb" name="Page-1">
        <mxGraphModel dx="3095" dy="2577" grid="1" gridSize="10" guides="1" tooltips="1" connect="1" arrows="1" fold="1" page="1" pageScale="1" pageWidth="850" pageHeight="1100" background="#FFFFFF" math="0" shadow="0">
            <root>
                <mxCell id="0"/>
                <mxCell id="1" parent="0"/>
                <mxCell id="687" value="" style="edgeStyle=none;html=1;endArrow=none;endFill=0;" parent="1" target="692" edge="1">
                    <mxGeometry x="-0.4777" y="20" relative="1" as="geometry">
                        <mxPoint as="offset"/>
                        <mxPoint x="-2067.3923137919855" y="-1690.548925516794" as="sourcePoint"/>
                    </mxGeometry>
                </mxCell>
                <mxCell id="692" value="&lt;font color=&quot;#ff0000&quot;&gt;CONTENUTO&lt;br&gt;MULTIMEDIALE&lt;/font&gt;" style="rounded=0;whiteSpace=wrap;html=1;strokeColor=#FF0000;" parent="1" vertex="1">
                    <mxGeometry x="-2127.61" y="-1650.4299999999998" width="120" height="40" as="geometry"/>
                </mxCell>
                <mxCell id="693" value="" style="endArrow=oval;html=1;fillStyle=auto;strokeWidth=1;startSize=6;endSize=6;fillColor=#000000;startArrow=none;startFill=0;endFill=0;" parent="1" source="692" edge="1">
                    <mxGeometry width="50" height="50" relative="1" as="geometry">
                        <mxPoint x="-2041.07" y="-1673.9933333333333" as="sourcePoint"/>
                        <mxPoint x="-2085.13" y="-1670.6499999999999" as="targetPoint"/>
                    </mxGeometry>
                </mxCell>
                <mxCell id="694" value="titolo" style="edgeLabel;html=1;align=center;verticalAlign=middle;resizable=0;points=[];" parent="693" vertex="1" connectable="0">
                    <mxGeometry x="0.4791" y="1" relative="1" as="geometry">
                        <mxPoint x="-21" y="-10" as="offset"/>
                    </mxGeometry>
                </mxCell>
                <mxCell id="695" value="" style="endArrow=oval;html=1;fillStyle=auto;strokeWidth=1;startSize=6;endSize=6;fillColor=#000000;startArrow=none;startFill=0;endFill=0;exitX=0.117;exitY=1.013;exitDx=0;exitDy=0;exitPerimeter=0;" parent="1" source="692" edge="1">
                    <mxGeometry width="50" height="50" relative="1" as="geometry">
                        <mxPoint x="-2109.9020980926425" y="-1579.4299999999998" as="sourcePoint"/>
                        <mxPoint x="-2147.42" y="-1600" as="targetPoint"/>
                    </mxGeometry>
                </mxCell>
                <mxCell id="696" value="LIS" style="edgeLabel;html=1;align=center;verticalAlign=middle;resizable=0;points=[];" parent="695" vertex="1" connectable="0">
                    <mxGeometry x="0.4791" y="1" relative="1" as="geometry">
                        <mxPoint x="-29" y="2" as="offset"/>
                    </mxGeometry>
                </mxCell>
                <mxCell id="702" style="edgeStyle=none;jumpStyle=arc;html=1;exitX=0.5;exitY=1;exitDx=0;exitDy=0;entryX=0;entryY=0.25;entryDx=0;entryDy=0;endArrow=none;endFill=0;strokeColor=#FF0000;strokeWidth=3;" parent="1" source="704" target="692" edge="1">
                    <mxGeometry relative="1" as="geometry">
                        <Array as="points">
                            <mxPoint x="-2287.42" y="-1640"/>
                        </Array>
                    </mxGeometry>
                </mxCell>
                <mxCell id="703" value="&lt;font color=&quot;#ff0000&quot;&gt;(0, N)&lt;/font&gt;" style="edgeLabel;html=1;align=center;verticalAlign=middle;resizable=0;points=[];strokeColor=#FF0000;" parent="702" vertex="1" connectable="0">
                    <mxGeometry x="-0.8996" relative="1" as="geometry">
                        <mxPoint x="20" y="-2" as="offset"/>
                    </mxGeometry>
                </mxCell>
                <mxCell id="704" value="&lt;font color=&quot;#ff0000&quot;&gt;voto&lt;/font&gt;" style="rhombus;whiteSpace=wrap;html=1;strokeColor=#FF0000;" parent="1" vertex="1">
                    <mxGeometry x="-2327.43" y="-1750" width="80" height="40" as="geometry"/>
                </mxCell>
                <mxCell id="705" value="" style="endArrow=oval;html=1;fillStyle=auto;strokeWidth=1;startSize=6;endSize=6;fillColor=#000000;startArrow=none;startFill=0;endFill=0;strokeColor=#FF0000;" parent="1" source="704" edge="1">
                    <mxGeometry width="50" height="50" relative="1" as="geometry">
                        <mxPoint x="-2157.43" y="-1521.8366122312948" as="sourcePoint"/>
                        <mxPoint x="-2227.42" y="-1730" as="targetPoint"/>
                    </mxGeometry>
                </mxCell>
                <mxCell id="706" value="&lt;font color=&quot;#ff0000&quot;&gt;likert&lt;/font&gt;" style="edgeLabel;html=1;align=center;verticalAlign=middle;resizable=0;points=[];strokeColor=#FF0000;" parent="705" vertex="1" connectable="0">
                    <mxGeometry x="0.4791" y="1" relative="1" as="geometry">
                        <mxPoint x="15" y="13" as="offset"/>
                    </mxGeometry>
                </mxCell>
                <mxCell id="718" value="" style="edgeStyle=none;html=1;endArrow=none;endFill=0;" parent="1" edge="1">
                    <mxGeometry x="-0.4777" y="20" relative="1" as="geometry">
                        <mxPoint as="offset"/>
                        <mxPoint x="-2287.6323137919853" y="-1790.118925516794" as="sourcePoint"/>
                        <mxPoint x="-2287.7775814708457" y="-1749.9999999999998" as="targetPoint"/>
                    </mxGeometry>
                </mxCell>
                <mxCell id="725" value="" style="endArrow=oval;html=1;fillStyle=auto;strokeWidth=1;startSize=6;endSize=6;fillColor=#000000;startArrow=none;startFill=0;endFill=0;exitX=0.117;exitY=1.013;exitDx=0;exitDy=0;exitPerimeter=0;" parent="1" edge="1">
                    <mxGeometry width="50" height="50" relative="1" as="geometry">
                        <mxPoint x="-2113.57" y="-1609.9099999999999" as="sourcePoint"/>
                        <mxPoint x="-2147.42" y="-1600" as="targetPoint"/>
                    </mxGeometry>
                </mxCell>
                <mxCell id="726" value="LIS" style="edgeLabel;html=1;align=center;verticalAlign=middle;resizable=0;points=[];" parent="725" vertex="1" connectable="0">
                    <mxGeometry x="0.4791" y="1" relative="1" as="geometry">
                        <mxPoint x="-29" y="2" as="offset"/>
                    </mxGeometry>
                </mxCell>
                <mxCell id="737" value="" style="endArrow=classic;html=1;strokeColor=#FF0000;fontColor=#FF0000;fillColor=#FF0000;strokeWidth=4;" parent="1" edge="1">
                    <mxGeometry width="50" height="50" relative="1" as="geometry">
                        <mxPoint x="-2370" y="-1600" as="sourcePoint"/>
                        <mxPoint x="-2370" y="-1750" as="targetPoint"/>
                    </mxGeometry>
                </mxCell>
                <mxCell id="738" value="" style="shape=flexArrow;endArrow=classic;html=1;strokeColor=#FF0000;fontColor=#FF0000;fillColor=#FF0000;" parent="1" edge="1">
                    <mxGeometry width="50" height="50" relative="1" as="geometry">
                        <mxPoint x="-2070.52" y="-1730.42" as="sourcePoint"/>
                        <mxPoint x="-2180" y="-1730" as="targetPoint"/>
                    </mxGeometry>
                </mxCell>
                <mxCell id="739" value="" style="endArrow=oval;html=1;fillStyle=auto;strokeWidth=1;startSize=6;endSize=6;fillColor=#000000;startArrow=none;startFill=0;endFill=1;exitX=0.75;exitY=0;exitDx=0;exitDy=0;strokeColor=#FF0000;" parent="1" source="692" edge="1">
                    <mxGeometry width="50" height="50" relative="1" as="geometry">
                        <mxPoint x="-2050" y="-1620" as="sourcePoint"/>
                        <mxPoint x="-2030" y="-1670" as="targetPoint"/>
                    </mxGeometry>
                </mxCell>
                <mxCell id="740" value="&lt;font color=&quot;#ff0000&quot; style=&quot;font-size: 11px;&quot;&gt;URL&lt;/font&gt;" style="text;html=1;align=center;verticalAlign=middle;resizable=0;points=[];autosize=1;strokeColor=none;fillColor=none;" parent="1" vertex="1">
                    <mxGeometry x="-2040" y="-1690" width="50" height="30" as="geometry"/>
                </mxCell>
                <mxCell id="741" value="" style="shape=flexArrow;endArrow=classic;html=1;strokeColor=#FF0000;fontColor=#FF0000;fillColor=#FF0000;" parent="1" edge="1">
                    <mxGeometry width="50" height="50" relative="1" as="geometry">
                        <mxPoint x="-1900" y="-1631" as="sourcePoint"/>
                        <mxPoint x="-1980" y="-1631" as="targetPoint"/>
                    </mxGeometry>
                </mxCell>
            </root>
        </mxGraphModel>
    </diagram>
</mxfile>